<svg width="7" height="8" viewBox="0 0 7 8" fill="none" xmlns="http://www.w3.org/2000/svg">
<path d="M3.52433 0L2.95753 1.15844C2.55251 1.98603 2.00968 2.73872 1.35227 3.38429L1.27779 3.45462C0.85557 3.86453 0.614326 4.42594 0.607556 5.01437V5.08884C0.596373 6.24112 1.28301 7.28579 2.34521 7.73256L2.45278 7.77807C3.14944 8.07398 3.93646 8.07398 4.63312 7.77807H4.65794C5.72809 7.31312 6.4147 6.25139 6.39973 5.0847V3.28913C6.04311 4.10356 5.39546 4.75564 4.58347 5.1178C4.58347 5.1178 4.58347 5.1178 4.55865 5.1178C4.53383 5.1178 4.24422 5.23778 4.1201 5.1178C4.00924 5.00563 3.99862 4.8287 4.09528 4.70408L4.12424 4.68339H4.14492C5.09474 3.96143 5.31618 2.62374 4.64967 1.63422C4.11182 0.815042 3.52433 0 3.52433 0Z" fill="#FF0000"/>
</svg>
