<svg width="30" height="30" viewBox="0 0 30 30" fill="none" xmlns="http://www.w3.org/2000/svg">
<path d="M25.4999 28.9998C26.6597 28.9998 27.5999 28.0596 27.5999 26.8998C27.5999 25.74 26.6597 24.7998 25.4999 24.7998C24.3401 24.7998 23.3999 25.74 23.3999 26.8998C23.3999 28.0596 24.3401 28.9998 25.4999 28.9998Z" fill="#373873" stroke="#373873" stroke-width="2" stroke-linecap="round" stroke-linejoin="round"/>
<path d="M11.4999 28.9998C12.6597 28.9998 13.5999 28.0596 13.5999 26.8998C13.5999 25.74 12.6597 24.7998 11.4999 24.7998C10.3401 24.7998 9.3999 25.74 9.3999 26.8998C9.3999 28.0596 10.3401 28.9998 11.4999 28.9998Z" fill="#373873" stroke="#373873" stroke-width="2" stroke-linecap="round" stroke-linejoin="round"/>
<path d="M5.2 3.8H29L26.2 19.2H8L5.2 3.8ZM5.2 3.8C4.96666 2.86666 3.8 1 1 1" stroke="#373873" stroke-width="2" stroke-linecap="round" stroke-linejoin="round"/>
<path d="M26.2002 19.2002H8.00019H5.52327C3.02524 19.2002 1.7002 20.2939 1.7002 22.0002C1.7002 23.7065 3.02524 24.8002 5.52327 24.8002H25.5002" stroke="#373873" stroke-width="2" stroke-linecap="round" stroke-linejoin="round"/>
</svg>
