<svg width="15" height="22" viewBox="0 0 15 22" fill="none" xmlns="http://www.w3.org/2000/svg">
<path d="M14.4017 17.3374C14.1835 16.4449 13.3763 14.9861 12.5204 13.6011C12.6433 13.3927 12.7174 13.1506 12.7174 12.8896V12.8391L12.4229 11.9192C12.6178 12.0644 12.8594 12.1529 13.1199 12.1529C13.764 12.1529 14.2852 11.6329 14.2852 10.9951C14.2852 10.3573 13.764 9.83739 13.1199 9.83739C12.8572 9.83739 12.6178 9.9258 12.4229 10.071L12.7174 9.15118V9.10276C12.7174 8.39339 12.192 7.81032 11.5204 7.74085L14.4059 2.33742L14.4102 2.27217C14.4271 2.02799 14.4229 1.67436 14.1729 1.40703C13.8106 1.01971 13.1348 1.00077 11.9738 1.00077H3.35114C2.29397 0.99656 1.65416 0.99656 1.30459 1.36914C1.05248 1.63647 1.04612 2.00905 1.06519 2.26796L1.06943 2.33532L3.95706 7.74085C3.28547 7.81032 2.76006 8.39339 2.76006 9.10276V9.15118L3.35326 10.9972L2.76006 12.8433V12.8938C2.76006 13.1527 2.83209 13.3969 2.95497 13.6053C2.09906 14.9903 1.29188 16.4491 1.07366 17.3416C0.878754 18.1373 1.07366 18.9582 1.62238 19.6507C2.27066 20.4696 3.34055 21 4.349 21H11.1285C12.1369 21 13.2068 20.4717 13.8551 19.6507C14.4038 18.9582 14.5987 18.1373 14.4038 17.3416L14.4017 17.3374ZM13.1178 10.4689C13.4102 10.4689 13.6475 10.7046 13.6475 10.9951C13.6475 11.2856 13.4102 11.5214 13.1178 11.5214C12.9462 11.5214 12.7937 11.4372 12.6962 11.3109H13.1178V10.6794H12.6962C12.7937 10.5531 12.9462 10.4689 13.1178 10.4689ZM1.76856 1.80066C1.93169 1.62805 2.58845 1.62805 3.35114 1.62805H11.9738C12.8466 1.62805 13.5288 1.64278 13.7068 1.83223C13.728 1.85328 13.7873 1.91853 13.7788 2.1585L10.8022 7.73243H4.67102L1.69441 2.1585C1.68805 1.97747 1.71348 1.85749 1.76644 1.80066H1.76856ZM4.09053 8.36392H11.3869C11.7556 8.36392 12.0585 8.66914 12.0818 9.05645L11.5607 10.6794H3.91681L3.39563 9.05645C3.41682 8.67125 3.71978 8.36392 4.09053 8.36392ZM3.91681 11.3109H11.5585L12.0797 12.9359C12.0585 13.3211 11.7535 13.6263 11.3848 13.6263H4.09053C3.7219 13.6263 3.41894 13.3211 3.39563 12.9359L3.91681 11.3109ZM13.353 19.255C12.8212 19.9286 11.9462 20.3622 11.1264 20.3622H4.34688C3.52699 20.3622 2.65201 19.9286 2.12025 19.255C1.69441 18.7182 1.54187 18.0888 1.69017 17.4868C1.88296 16.6932 2.61599 15.365 3.41258 14.0663C3.61173 14.1883 3.84054 14.2578 4.08841 14.2578H11.3827C11.6306 14.2578 11.8594 14.1862 12.0585 14.0663C12.8572 15.365 13.5881 16.6932 13.7809 17.4868C13.9292 18.0888 13.7767 18.7182 13.3509 19.255H13.353Z" fill="white" stroke="white" stroke-width="0.25"/>
</svg>
