<svg width="28" height="28" viewBox="0 0 28 28" fill="none" xmlns="http://www.w3.org/2000/svg">
<path d="M14.0582 12.7868H10.4182C9.93492 12.7868 9.54317 12.3951 9.54317 11.9118C9.54317 11.4286 9.93492 11.0368 10.4182 11.0368H14.0582C14.5414 11.0368 14.9332 11.4286 14.9332 11.9118C14.9332 12.3951 14.5414 12.7868 14.0582 12.7868Z" fill="#373873"/>
<path d="M10.4182 14.6652H17.5815C18.0648 14.6652 18.4565 15.0569 18.4565 15.5402C18.4565 16.0234 18.0648 16.4152 17.5815 16.4152H10.4182C9.93492 16.4152 9.54317 16.0234 9.54317 15.5402C9.54317 15.0569 9.93492 14.6652 10.4182 14.6652Z" fill="#373873"/>
<path d="M16.6015 18.0835H10.4182C9.93492 18.0835 9.54317 18.4753 9.54317 18.9585C9.54317 19.4418 9.93492 19.8335 10.4182 19.8335H16.6015C17.0848 19.8335 17.4765 19.4418 17.4765 18.9585C17.4765 18.4753 17.0848 18.0835 16.6015 18.0835Z" fill="#373873"/>
<path fill-rule="evenodd" clip-rule="evenodd" d="M16.6482 2.3335C17.5922 2.33219 18.3718 3.07074 18.4215 4.0135C21.1922 4.32504 23.2977 6.65053 23.3332 9.4385V21.2102C23.3268 24.2681 20.8494 26.7454 17.7915 26.7518H10.2082C7.15025 26.7454 4.67292 24.2681 4.6665 21.2102V9.4385C4.70199 6.65053 6.80743 4.32504 9.57817 4.0135C9.63356 3.07339 10.4098 2.33803 11.3515 2.3335H16.6482ZM16.6715 4.0135H11.3515V5.40183H16.6715V4.0135ZM21.5832 21.2102C21.5832 23.3061 19.8875 25.0071 17.7915 25.0135H10.2082C8.1122 25.0071 6.41649 23.3061 6.4165 21.2102V9.4385C6.42114 7.58218 7.76909 6.00217 9.6015 5.70517C9.74472 6.55842 10.4863 7.18138 11.3515 7.17517H16.6482C17.5133 7.18138 18.2549 6.55842 18.3982 5.70517C20.2306 6.00217 21.5785 7.58218 21.5832 9.4385V21.2102Z" fill="#373873"/>
</svg>
