<svg width="24" height="28" viewBox="0 0 24 28" fill="none" xmlns="http://www.w3.org/2000/svg">
<path d="M0.00082303 7.75134V19.3571C0.00082303 20.0535 0.372468 20.6965 0.975161 21.0443L11.0261 26.8468C11.6288 27.1946 12.3712 27.1946 12.9748 26.8468L23.0257 21.0443C23.6284 20.6965 24 20.0527 24 19.3571V7.75134C24 7.05492 23.6284 6.41194 23.0257 6.06413L12.9739 0.260852C12.3712 -0.0869505 11.6288 -0.0869505 11.0253 0.260852L0.974338 6.06331C0.371645 6.41111 0 7.05492 0 7.75052L0.00082303 7.75134Z" fill="#8185C9"/>
<path d="M12.3667 12.9733H10.2867C10.0105 12.9733 9.78667 12.7495 9.78667 12.4733C9.78667 12.1972 10.0105 11.9733 10.2867 11.9733H12.3667C12.6428 11.9733 12.8667 12.1972 12.8667 12.4733C12.8667 12.7495 12.6428 12.9733 12.3667 12.9733Z" fill="white"/>
<path d="M10.2867 14.0467H14.38C14.6561 14.0467 14.88 14.2705 14.88 14.5467C14.88 14.8228 14.6561 15.0467 14.38 15.0467H10.2867C10.0105 15.0467 9.78667 14.8228 9.78667 14.5467C9.78667 14.2705 10.0105 14.0467 10.2867 14.0467Z" fill="white"/>
<path d="M13.82 16H10.2867C10.0105 16 9.78667 16.2239 9.78667 16.5C9.78667 16.7761 10.0105 17 10.2867 17H13.82C14.0961 17 14.32 16.7761 14.32 16.5C14.32 16.2239 14.0961 16 13.82 16Z" fill="white"/>
<path fill-rule="evenodd" clip-rule="evenodd" d="M13.8467 7C14.3861 6.99926 14.8316 7.42128 14.86 7.96C16.4433 8.13802 17.6464 9.46688 17.6667 11.06V17.7867C17.663 19.5341 16.2474 20.9497 14.5 20.9533H10.1667C8.41929 20.9497 7.00367 19.5341 7 17.7867V11.06C7.02028 9.46688 8.22339 8.13802 9.80667 7.96C9.83832 7.42279 10.2819 7.00259 10.82 7H13.8467ZM13.86 7.96H10.82V8.75334H13.86V7.96ZM16.6667 17.7867C16.6667 18.9844 15.6977 19.9563 14.5 19.96H10.1667C8.96897 19.9563 7.99999 18.9844 8 17.7867V11.06C8.00265 9.99925 8.77291 9.09639 9.82 8.92667C9.90184 9.41424 10.3256 9.77022 10.82 9.76667H13.8467C14.341 9.77022 14.7648 9.41424 14.8467 8.92667C15.8938 9.09639 16.664 9.99925 16.6667 11.06V17.7867Z" fill="white"/>
</svg>
