<svg width="22" height="22" viewBox="0 0 22 22" fill="none" xmlns="http://www.w3.org/2000/svg">
<path d="M21.4714 11.8779C21.1818 14.4458 19.9351 16.8102 17.9799 18.4999C16.0246 20.1895 13.5044 21.0802 10.9217 20.9944C8.33892 20.9087 5.88338 19.8527 4.04453 18.0371C2.20567 16.2214 1.11859 13.7795 1 11.1981C1.01282 10.6664 1.06331 10.1363 1.15109 9.61171C1.19846 10.369 1.50351 11.0873 2.01556 11.6473C2.52761 12.2072 3.21582 12.5751 3.96587 12.6898C4.71592 12.8045 5.48264 12.6591 6.13865 12.2778C6.79465 11.8965 7.30047 11.3022 7.57202 10.5937C7.65599 10.4289 7.70728 10.2493 7.72309 10.065C7.95702 9.23022 8.47653 8.50405 9.19101 8.0131C9.9055 7.52215 10.7696 7.29755 11.6327 7.37847C12.4959 7.45939 13.3032 7.84068 13.914 8.45588C14.5248 9.07108 14.9003 9.88114 14.975 10.7448V11.4247C15.0691 12.2323 15.4628 12.9753 16.0782 13.5068C16.6936 14.0383 17.486 14.3196 18.2988 14.2952C19.0211 14.3024 19.7252 14.0687 20.2998 13.6309C20.8744 13.1931 21.2867 12.5763 21.4714 11.8779Z" stroke="white" stroke-linecap="round" stroke-linejoin="round"/>
<path d="M14.9751 11.1981V11.4247C14.936 12.38 14.5289 13.2831 13.8389 13.9449C13.1489 14.6067 12.2297 14.9759 11.2736 14.9751C10.2719 14.9751 9.31116 14.5771 8.60283 13.8688C7.8945 13.1605 7.49658 12.1998 7.49658 11.1981C7.49658 10.9714 7.57213 10.8204 7.57213 10.5937C7.6561 10.4289 7.70739 10.2493 7.72319 10.065C7.95712 9.23022 8.47664 8.50405 9.19112 8.0131C9.90561 7.52215 10.7697 7.29755 11.6329 7.37847C12.496 7.45939 13.3033 7.84068 13.9141 8.45588C14.5249 9.07108 14.9004 9.88114 14.9751 10.7448V11.1981Z" stroke="white" stroke-linecap="round" stroke-linejoin="round"/>
<path d="M21.4712 11.198V11.8778C21.2864 12.5762 20.8742 13.193 20.2996 13.6308C19.725 14.0686 19.0209 14.3023 18.2985 14.2951C17.4858 14.3195 16.6934 14.0382 16.078 13.5067C15.4626 12.9752 15.0689 12.2322 14.9748 11.4246V10.7447C14.9 9.88103 14.5246 9.07097 13.9138 8.45577C13.303 7.84057 12.4957 7.45928 11.6325 7.37836C10.7694 7.29744 9.90529 7.52204 9.1908 8.01299C8.47632 8.50394 7.95681 9.23011 7.72287 10.0649C7.64733 10.2159 7.64735 10.4425 7.57181 10.5936C7.30026 11.3021 6.79444 11.8964 6.13844 12.2777C5.48243 12.659 4.71571 12.8044 3.96566 12.6897C3.21561 12.575 2.5274 12.2071 2.01535 11.6471C1.5033 11.0872 1.19824 10.3689 1.15088 9.6116C1.2325 9.0485 1.3588 8.49278 1.52858 7.94971C2.23284 5.92457 3.54869 4.16817 5.29432 2.92322C7.03996 1.67826 9.12919 1.00625 11.2733 1.00001C13.7451 0.996252 16.1341 1.89037 17.996 3.51609C19.858 5.14182 21.0661 7.38848 21.3957 9.83822C21.4584 10.2886 21.4836 10.7434 21.4712 11.198Z" stroke="white" stroke-linecap="round" stroke-linejoin="round"/>
<path d="M4.70166 9.46088L5.60815 8.40332" stroke="white" stroke-linecap="round" stroke-linejoin="round"/>
<path d="M8.3276 6.21181L7.27002 5.38086" stroke="white" stroke-linecap="round" stroke-linejoin="round"/>
<path d="M16.6367 6.43935L15.5791 5.6084" stroke="white" stroke-linecap="round" stroke-linejoin="round"/>
<path d="M11.3491 4.85248L12.18 3.79492" stroke="white" stroke-linecap="round" stroke-linejoin="round"/>
<path d="M17.8457 10.2158L18.7522 9.1582" stroke="white" stroke-linecap="round" stroke-linejoin="round"/>
</svg>
