<svg width="29" height="24" viewBox="0 0 29 24" fill="none" xmlns="http://www.w3.org/2000/svg">
<path d="M1.09099 4.36305H16.5524C16.7782 5.00095 17.1961 5.5532 17.7486 5.94379C18.3012 6.33438 18.9612 6.54411 19.6379 6.54411C20.3146 6.54411 20.9746 6.33438 21.5271 5.94379C22.0797 5.5532 22.4976 5.00095 22.7234 4.36305H27.2748C27.5642 4.36305 27.8417 4.24811 28.0463 4.04351C28.2509 3.8389 28.3658 3.56141 28.3658 3.27206C28.3658 2.98271 28.2509 2.70521 28.0463 2.50061C27.8417 2.296 27.5642 2.18106 27.2748 2.18106H22.7234C22.4976 1.54316 22.0797 0.99091 21.5271 0.600319C20.9746 0.209728 20.3146 0 19.6379 0C18.9612 0 18.3012 0.209728 17.7486 0.600319C17.1961 0.99091 16.7782 1.54316 16.5524 2.18106H1.09099C0.801644 2.18106 0.524146 2.296 0.319545 2.50061C0.114944 2.70521 0 2.98271 0 3.27206C0 3.56141 0.114944 3.8389 0.319545 4.04351C0.524146 4.24811 0.801644 4.36305 1.09099 4.36305Z" fill="#373873"/>
<path d="M27.2748 19.6371H22.7234C22.4976 18.9992 22.0797 18.447 21.5271 18.0564C20.9746 17.6658 20.3146 17.4561 19.6379 17.4561C18.9612 17.4561 18.3012 17.6658 17.7486 18.0564C17.1961 18.447 16.7782 18.9992 16.5524 19.6371H1.09099C0.801644 19.6371 0.524146 19.7521 0.319545 19.9567C0.114944 20.1613 0 20.4388 0 20.7281C0 21.0175 0.114944 21.295 0.319545 21.4996C0.524146 21.7042 0.801644 21.8191 1.09099 21.8191H16.5524C16.7782 22.457 17.1961 23.0092 17.7486 23.3998C18.3012 23.7904 18.9612 24.0002 19.6379 24.0002C20.3146 24.0002 20.9746 23.7904 21.5271 23.3998C22.0797 23.0092 22.4976 22.457 22.7234 21.8191H27.2748C27.5642 21.8191 27.8417 21.7042 28.0463 21.4996C28.2509 21.295 28.3658 21.0175 28.3658 20.7281C28.3658 20.4388 28.2509 20.1613 28.0463 19.9567C27.8417 19.7521 27.5642 19.6371 27.2748 19.6371Z" fill="#373873"/>
<path d="M27.2748 10.9086H11.8134C11.5877 10.2707 11.1698 9.71845 10.6172 9.32786C10.0646 8.93727 9.40462 8.72754 8.72795 8.72754C8.05128 8.72754 7.39125 8.93727 6.8387 9.32786C6.28614 9.71845 5.86823 10.2707 5.64248 10.9086H1.09099C0.801644 10.9086 0.524146 11.0235 0.319545 11.2281C0.114944 11.4327 0 11.7102 0 11.9996C0 12.2889 0.114944 12.5664 0.319545 12.771C0.524146 12.9756 0.801644 13.0906 1.09099 13.0906H5.64248C5.86823 13.7285 6.28614 14.2807 6.8387 14.6713C7.39125 15.0619 8.05128 15.2716 8.72795 15.2716C9.40462 15.2716 10.0646 15.0619 10.6172 14.6713C11.1698 14.2807 11.5877 13.7285 11.8134 13.0906H27.2748C27.5642 13.0906 27.8417 12.9756 28.0463 12.771C28.2509 12.5664 28.3658 12.2889 28.3658 11.9996C28.3658 11.7102 28.2509 11.4327 28.0463 11.2281C27.8417 11.0235 27.5642 10.9086 27.2748 10.9086Z" fill="#373873"/>
</svg>
