<svg width="24" height="28" viewBox="0 0 24 28" fill="none" xmlns="http://www.w3.org/2000/svg">
<path d="M0 7.82265V19.2347C0 19.9912 0.403755 20.6902 1.05832 21.0676L10.9417 26.7737C11.5962 27.1519 12.4038 27.1519 13.0583 26.7737L22.9417 21.0676C23.5962 20.6894 24 19.9904 24 19.2347V7.82265C24 7.06613 23.5962 6.36716 22.9417 5.98972L13.0583 0.283698C12.4038 -0.0945659 11.5962 -0.0945659 10.9417 0.283698L1.05832 5.98972C0.403755 6.36798 0 7.06695 0 7.82265Z" fill="url(#paint0_linear_12_34)"/>
<path d="M15.58 6.66699H8.42091C6.44325 6.66699 4.83398 8.27626 4.83398 10.2531V16.8028C4.83398 18.7805 6.44325 20.3889 8.42091 20.3889H15.58C17.5576 20.3889 19.1661 18.7796 19.1661 16.8028V10.2531C19.1661 8.27543 17.5568 6.66699 15.58 6.66699ZM6.09952 10.2531C6.09952 8.97276 7.14057 7.93171 8.42091 7.93171H15.58C16.8603 7.93171 17.9013 8.97276 17.9013 10.2531V16.8028C17.9013 18.0832 16.8603 19.1242 15.58 19.1242H8.42091C7.14057 19.1242 6.09952 18.0832 6.09952 16.8028V10.2531Z" fill="white"/>
<path d="M12.0002 16.8646C13.8397 16.8646 15.3363 15.368 15.3363 13.5285C15.3363 11.689 13.8397 10.1924 12.0002 10.1924C10.1607 10.1924 8.66406 11.689 8.66406 13.5285C8.66406 15.368 10.1607 16.8646 12.0002 16.8646ZM12.0002 11.4579C13.1424 11.4579 14.0708 12.3871 14.0708 13.5285C14.0708 14.6699 13.1416 15.5991 12.0002 15.5991C10.8588 15.5991 9.9296 14.6699 9.9296 13.5285C9.9296 12.3871 10.8588 11.4579 12.0002 11.4579Z" fill="white"/>
<path d="M15.6468 10.7312C16.1427 10.7312 16.5456 10.3282 16.5456 9.83238C16.5456 9.33653 16.1427 8.93359 15.6468 8.93359C15.151 8.93359 14.748 9.33653 14.748 9.83238C14.748 10.3282 15.151 10.7312 15.6468 10.7312Z" fill="white"/>
<defs>
<linearGradient id="paint0_linear_12_34" x1="2.7087" y1="22.82" x2="21.2921" y2="4.23737" gradientUnits="userSpaceOnUse">
<stop stop-color="#FAAD4F"/>
<stop offset="0.35" stop-color="#DD2A7B"/>
<stop offset="0.62" stop-color="#9537B0"/>
<stop offset="1" stop-color="#515BD4"/>
</linearGradient>
</defs>
</svg>
