<svg width="14" height="22" viewBox="0 0 14 22" fill="none" xmlns="http://www.w3.org/2000/svg">
<path d="M9.59383 20.9991H4.22231C3.81204 20.9994 3.41769 20.8055 3.12236 20.4581C2.82703 20.1108 2.65379 19.6372 2.63914 19.1371L2.41296 10.2411C2.40548 9.51665 2.51512 8.79742 2.73556 8.12458C2.95601 7.45175 3.28296 6.83849 3.69775 6.31979C4.11255 5.80108 4.60705 5.38709 5.15303 5.1015C5.69901 4.8159 6.28578 4.66427 6.87981 4.65527C7.47119 4.65522 8.05668 4.79839 8.60234 5.07647C9.148 5.35456 9.64298 5.76204 10.0585 6.27525C10.474 6.78847 10.8019 7.39721 11.023 8.06616C11.2441 8.73512 11.3541 9.45095 11.3467 10.1722L11.177 19.1371C11.1771 19.3875 11.1359 19.6354 11.0556 19.8659C10.9754 20.0965 10.8579 20.3049 10.7101 20.4787C10.5623 20.6525 10.3872 20.7882 10.1954 20.8776C10.0036 20.967 9.79902 21.0083 9.59383 20.9991Z" stroke="white" stroke-miterlimit="10"/>
<path d="M1 10.3789H12.7608" stroke="white" stroke-linecap="round" stroke-linejoin="round"/>
<path d="M6.87946 15.9646L6.48366 1H3.26074" stroke="white" stroke-linecap="round" stroke-linejoin="round"/>
</svg>
