<svg width="76" height="48" viewBox="0 0 76 48" fill="none" xmlns="http://www.w3.org/2000/svg">
<g clip-path="url(#clip0_12_16)">
<path d="M71.1433 5.89983C71.1433 5.9558 71.1433 6.02576 71.1291 6.06774C71.0579 6.61342 71.0579 7.1591 71.1005 7.71878C71.1291 7.8587 71.1575 7.99862 71.2715 8.11056C71.4567 8.32043 71.7414 8.27846 71.8554 8.0266C71.9124 7.90068 71.9124 7.77475 71.8839 7.64882C71.7414 7.11713 71.713 6.55746 71.6988 6.01176C71.6988 5.98378 71.6988 5.9418 71.6988 5.89983C71.8554 5.88584 71.9979 5.87184 72.126 5.87184C72.2258 5.85786 72.3112 5.84386 72.3825 5.80188C72.596 5.68995 72.596 5.45209 72.3681 5.34015C72.2827 5.29818 72.1688 5.28418 72.0691 5.28418C71.713 5.29818 71.357 5.29818 71.0009 5.29818C70.8728 5.29818 70.7445 5.31217 70.6163 5.32616C70.5451 5.34015 70.4597 5.34015 70.4028 5.38213C70.303 5.4241 70.2461 5.49406 70.2461 5.592C70.2603 5.68995 70.303 5.74592 70.4028 5.7879C70.4597 5.82987 70.5309 5.84386 70.6021 5.84386C70.773 5.85786 70.9582 5.88584 71.1433 5.89983ZM75.0599 6.54346C75.0599 6.55746 75.0742 6.57144 75.0742 6.57144C75.1312 6.94922 75.1882 7.31302 75.2308 7.6768C75.2452 7.80273 75.2594 7.91467 75.3448 8.01261C75.5299 8.25047 75.8148 8.22249 75.9429 7.97064C75.9999 7.84471 76.0142 7.71878 75.9857 7.57886C75.9003 7.1591 75.8575 6.73934 75.7721 6.33358C75.7151 6.08172 75.6439 5.84386 75.5727 5.61999C75.5299 5.48007 75.4303 5.38212 75.2594 5.36814C75.0885 5.34015 74.9603 5.4241 74.889 5.55003C74.8036 5.66196 74.7324 5.7739 74.6754 5.89983C74.5757 6.1237 74.4903 6.34758 74.3764 6.55746C74.362 6.61342 74.3478 6.6554 74.3194 6.69736C74.3051 6.66938 74.2909 6.6554 74.2909 6.6554C74.1057 6.3056 73.9348 5.9558 73.7497 5.61999C73.7211 5.592 73.7069 5.56402 73.6927 5.53604C73.6072 5.41011 73.5076 5.34015 73.3509 5.34015C73.2085 5.35414 73.0945 5.4381 73.0233 5.56402C72.9948 5.61999 72.9948 5.66196 72.9806 5.71794C72.9236 6.16568 72.8523 6.61342 72.7955 7.06116C72.7669 7.31302 72.7527 7.56487 72.7527 7.81672C72.7385 7.87269 72.7527 7.94265 72.7811 7.99862C72.8097 8.11055 72.8951 8.18052 73.009 8.19451C73.1515 8.2085 73.2511 8.16652 73.2939 8.05459C73.3366 7.97064 73.3509 7.90068 73.3651 7.83072C73.4221 7.57886 73.4648 7.341 73.5076 7.10314C73.536 6.96322 73.5502 6.85128 73.593 6.69736C73.6215 6.75334 73.6499 6.79532 73.6785 6.83728C73.8066 7.0052 73.9348 7.1731 74.0915 7.31302C74.2481 7.42495 74.3764 7.41096 74.5045 7.28503C74.533 7.25704 74.5473 7.24306 74.5757 7.21507C74.7039 7.01918 74.8606 6.8233 74.9887 6.6274C75.0173 6.59942 75.0315 6.57144 75.0599 6.54346Z" fill="#373873"/>
<path d="M42.2438 6.17495C42.1447 6.44086 42.1259 6.63243 42.1716 6.79166C42.222 7.00819 42.3531 7.07907 42.5309 7.02401C44.2038 6.61761 47.8721 7.77114 49.2302 8.09264C49.5505 8.16014 49.8111 7.75394 49.5925 7.38975C49.2735 7.03706 45.6069 5.52706 44.2078 5.44473C43.6594 5.41428 42.679 5.27613 42.2438 6.17495Z" fill="#373873"/>
<path d="M56.58 1.28729C56.7582 1.38838 56.8579 1.48482 56.9071 1.59257C56.9804 1.7339 56.9417 1.83169 56.8186 1.88159C55.7128 2.4118 54.2413 4.69442 53.6473 5.48168C53.5034 5.66278 53.1713 5.55754 53.1211 5.25972C53.1314 4.92298 54.4358 2.44582 55.1638 1.77113C55.4498 1.5077 55.9225 0.99084 56.58 1.28729Z" fill="#373873"/>
<path d="M47.7738 0.163414C47.988 0.0048206 48.2105 -0.0507552 48.3242 0.0523104C49.9926 1.45407 50.8774 3.67389 51.4252 5.70608C51.4459 5.75342 51.4472 5.82136 51.4307 5.89224C51.4238 5.95282 51.3788 6.01681 51.3072 6.06633C51.2308 6.12099 51.165 6.13764 51.134 6.09053C50.4028 5.11344 46.2264 1.31173 47.7738 0.163414Z" fill="#373873"/>
<path d="M12.4434 24.4665C12.8432 24.1741 13.278 23.9306 13.738 23.7416C14.2193 23.6065 14.7323 23.6288 15.1995 23.8055C15.6665 23.9823 16.0625 24.3036 16.3272 24.7209C16.564 25.1372 16.6566 25.6179 16.5912 26.0905C16.5259 26.5629 16.306 27.0018 15.9647 27.341C15.7001 27.6159 15.3997 27.8553 15.0715 28.0532C13.6086 28.9817 12.1326 29.8592 10.6568 30.7877C10.3548 31.0201 10.0344 31.2285 9.69877 31.4109C9.18819 31.6611 8.60469 31.7281 8.04914 31.6003C7.4936 31.4727 7.00097 31.1582 6.65643 30.7114C6.39886 30.3951 6.18149 30.0492 6.00911 29.6812C4.61093 26.7941 3.16097 23.9197 1.81456 20.9816C1.19315 19.7098 0.688248 18.2471 0.196295 16.8354C-0.016547 16.4252 -0.0581102 15.9497 0.0804554 15.5098C0.219021 15.07 0.526783 14.7006 0.938275 14.4802C1.34977 14.2599 1.83252 14.206 2.28388 14.3299C2.73523 14.4538 3.11957 14.7459 3.35515 15.1438C4.07927 16.0892 4.72026 17.0934 5.27119 18.1455C6.66937 20.6892 8.00283 23.2328 9.34923 25.7002C9.42763 25.8366 9.51407 25.9682 9.60815 26.0945C10.6215 25.6759 11.5747 25.1286 12.4434 24.4665Z" fill="#373873"/>
<path d="M26.8998 23.579C23.7022 27.2546 18.3424 26.3261 15.6497 21.5948C13.7336 18.2371 13.397 12.6918 17.5657 9.19422C18.4559 8.46197 19.5203 7.96315 20.6598 7.74429C22.0569 7.54752 23.4816 7.78966 24.7301 8.43611C25.9787 9.08256 26.9873 10.1002 27.6119 11.3437C29.8904 15.4136 29.5668 20.6028 26.8998 23.579ZM25.6052 15.0066C25.2655 14.0065 24.584 13.1526 23.6762 12.59C23.1626 12.2304 22.5384 12.0555 21.9089 12.0949C21.2793 12.1342 20.6828 12.3855 20.2196 12.8062C18.3684 14.4216 17.9799 18.2499 19.3263 20.5265C19.498 20.8977 19.75 21.2276 20.0649 21.4932C20.3799 21.7587 20.7501 21.9534 21.1497 22.0636C21.5492 22.1739 21.9684 22.197 22.378 22.1314C22.7877 22.0658 23.1777 21.913 23.521 21.6838C24.5245 20.9194 25.2607 19.8669 25.6273 18.6726C25.9939 17.4782 25.9726 16.2013 25.5665 15.0194L25.6052 15.0066Z" fill="#373873"/>
<path d="M39.9492 16.6097C39.6218 16.6789 39.2836 16.683 38.9545 16.6218C38.6256 16.5606 38.3122 16.4355 38.0332 16.2536C37.789 16.1164 37.5788 15.9278 37.4177 15.7012C37.2567 15.4746 37.1488 15.2159 37.1018 14.9434C37.0547 14.671 37.0697 14.3917 37.1456 14.1256C37.2216 13.8595 37.3568 13.6133 37.5413 13.4046C37.8626 12.9853 38.3189 12.6851 38.8359 12.5525C40.1857 12.1676 41.5754 11.933 42.9786 11.853C43.287 11.8178 43.5993 11.8434 43.8974 11.9284C44.1955 12.0135 44.4732 12.1561 44.7145 12.3481C44.9556 12.54 45.1554 12.7774 45.302 13.0462C45.4484 13.315 45.5389 13.6098 45.5679 13.9134C45.9724 15.4047 46.0167 16.9683 45.6973 18.4794C44.5322 23.3633 40.5188 25.0421 36.0136 23.4778C34.7489 23.0595 33.6401 22.2802 32.8288 21.2393C31.7468 19.9859 30.9797 18.5004 30.5891 16.9023C30.2727 15.4792 30.3074 14.0026 30.6903 12.5954C31.0731 11.1882 31.7931 9.89141 32.79 8.81327C33.7361 7.64145 34.964 6.71923 36.3632 6.12964C37.2473 5.6509 38.2818 5.51477 39.2631 5.74809C39.4857 5.80861 39.6877 5.92654 39.8483 6.08964C40.0089 6.25275 40.1221 6.45508 40.1763 6.67568C40.2305 6.89626 40.2235 7.12706 40.1563 7.34415C40.089 7.56123 39.9639 7.75669 39.7939 7.91025C39.4706 8.19776 39.1194 8.45336 38.7452 8.67336C37.5943 9.39344 36.5927 10.3213 35.7935 11.4078C35.2696 12.1109 34.9089 12.9183 34.7367 13.773C34.5644 14.6278 34.5849 15.5092 34.7967 16.3554C35.0903 17.5092 35.7418 18.5448 36.6609 19.3188C39.509 21.8626 43.2116 19.4078 42.5643 15.9356C41.6193 16.1646 40.7907 16.4063 39.9492 16.6097Z" fill="#373873"/>
<path d="M57.3495 23.7823C53.142 26.3261 48.3519 23.7823 47.3032 18.4405C46.5394 14.625 47.9894 9.28314 53.0644 7.24817C54.1441 6.82452 55.3153 6.67577 56.4692 6.81574C57.8555 7.06506 59.1273 7.73557 60.1051 8.73274C61.0829 9.72989 61.7176 11.0034 61.9195 12.3738C62.7739 16.9142 60.832 21.7601 57.3495 23.7823ZM58.8125 15.2227C58.8112 14.1661 58.4307 13.1437 57.7379 12.3356C57.3676 11.8357 56.8322 11.4776 56.2231 11.3221C55.614 11.1668 54.9689 11.2237 54.3977 11.4835C52.1193 12.45 50.5139 15.9604 51.0965 18.5423C51.141 18.9475 51.275 19.3382 51.4892 19.6872C51.7034 20.0362 51.9927 20.335 52.3367 20.5628C52.6807 20.7905 53.0712 20.9417 53.4808 21.0057C53.8906 21.0696 54.3096 21.045 54.7085 20.9334C55.9128 20.52 56.9557 19.7476 57.6914 18.7237C58.4271 17.6999 58.8191 16.4759 58.8125 15.2227Z" fill="#373873"/>
<path d="M66.174 24.8509C66.1105 25.3164 65.8615 25.7381 65.4815 26.0231C65.1015 26.3081 64.6218 26.4332 64.148 26.3708C63.6742 26.3084 63.245 26.0636 62.9549 25.6903C62.6647 25.3171 62.5374 24.8458 62.601 24.3803C62.6645 23.9148 62.9136 23.4932 63.2935 23.2081C63.6735 22.9231 64.1532 22.7981 64.627 22.8605C65.1008 22.9229 65.53 23.1676 65.8202 23.5409C66.1103 23.9142 66.2377 24.3855 66.174 24.8509ZM65.0477 7.69353C65.294 7.32409 65.6552 7.04276 66.0775 6.89148C66.4998 6.74021 66.9605 6.72709 67.391 6.85411C67.8287 6.96168 68.2153 7.21369 68.4864 7.56794C68.7574 7.92221 68.8962 8.35719 68.8799 8.80005C68.8227 9.51042 68.7146 10.2159 68.5562 10.9113C68.129 13.2643 67.7147 15.6172 67.2616 17.9447C67.0544 18.8732 66.7826 19.7635 66.4848 20.7046C66.3812 20.9988 66.2081 21.2647 65.9799 21.4805C65.838 21.6428 65.6568 21.7673 65.4529 21.8424C65.249 21.9177 65.0291 21.9412 64.8136 21.9107C64.5981 21.8803 64.3938 21.7969 64.2197 21.6684C64.0457 21.5398 63.9075 21.3702 63.8179 21.1752C63.664 20.8255 63.5804 20.4497 63.5719 20.0687C63.5719 18.4916 63.5719 16.9018 63.6755 15.3119C63.8515 13.0431 64.1976 10.79 64.7111 8.57111C64.7716 8.27384 64.8855 7.98956 65.0477 7.73169V7.69353Z" fill="#373873"/>
<path fill-rule="evenodd" clip-rule="evenodd" d="M6.97354 35.0711C6.82068 35.4063 6.77876 35.7801 6.85346 36.1397C6.90315 36.6138 7.0123 37.0802 7.17841 37.5281C7.3858 38.0767 7.61787 38.6191 7.90403 39.2876C7.96983 39.4414 8.0386 39.602 8.11056 39.7709C8.49645 40.6766 8.98063 41.8341 9.62647 43.5092C9.80927 43.985 9.9716 44.4648 10.1351 44.9479C10.2011 45.143 10.2674 45.3388 10.3352 45.5351C10.5784 46.2328 10.9967 46.8597 11.5513 47.3565C11.7868 47.6295 12.0992 47.8285 12.4494 47.928C12.8065 48.0294 13.1863 48.023 13.5396 47.9096C13.8929 47.796 14.2032 47.5806 14.4302 47.2914C14.6528 47.0079 14.7851 46.6663 14.8109 46.3093C14.9553 45.614 14.906 44.893 14.668 44.2226C14.2903 43.1096 13.86 41.9949 13.3638 40.9046L13.3615 40.8998C12.5453 39.1941 11.7156 37.5001 10.8466 35.8055L10.8401 35.7936C10.5858 35.3521 10.2552 34.9574 9.86322 34.6273C9.60877 34.3327 9.25779 34.1339 8.87019 34.0654C8.47433 33.9955 8.06606 34.0659 7.71826 34.2644C7.38925 34.4489 7.12844 34.7314 6.97354 35.0711Z" fill="#373873"/>
<path fill-rule="evenodd" clip-rule="evenodd" d="M19.4405 30.8712C18.1607 30.5455 16.824 30.4981 15.5238 30.7322C14.5167 30.8296 13.5262 31.0578 12.8384 31.5099C12.4886 31.74 12.2057 32.0354 12.0484 32.4109C11.8902 32.7884 11.87 33.2202 11.9997 33.7013C12.2363 34.5825 12.5437 35.4393 12.85 36.2934L12.8996 36.4317L12.9008 36.4348C13.823 38.916 14.754 41.3887 15.6935 43.853C15.803 44.2413 15.958 44.616 16.1551 44.9693L16.1588 44.9758C16.4193 45.4148 16.7533 45.8074 17.1469 46.1372C17.3438 46.3185 17.5872 46.444 17.8511 46.5001C18.1177 46.5566 18.3948 46.5402 18.6525 46.4525C18.9102 46.3649 19.1384 46.2094 19.3124 46.003C19.4835 45.8 19.5955 45.5554 19.6367 45.2952C19.8065 44.588 19.7521 43.8468 19.4807 43.1708C19.396 42.9434 19.3295 42.7109 19.2595 42.4662C19.2362 42.3846 19.2125 42.3016 19.1875 42.217C21.338 41.3912 23.6261 40.2808 24.4308 37.6975C24.7458 36.8048 24.7721 35.8382 24.5059 34.9301C24.2395 34.021 23.6928 33.2153 22.9413 32.6238C21.9184 31.7958 20.7236 31.1976 19.4405 30.8712ZM15.8929 34.0397C15.9353 34.0277 15.9779 34.0166 16.0207 34.0062C17.4207 33.79 18.8531 34.0781 20.0541 34.8173C20.5834 35.1789 20.8002 35.5807 20.8375 35.9673C20.8759 36.3654 20.7286 36.7968 20.4326 37.2114C19.8734 37.9947 18.8528 38.6216 17.9309 38.7385C17.2589 37.218 16.5764 35.6359 15.8929 34.0397Z" fill="#373873"/>
<path d="M27.9732 28.0875C29.4973 27.396 31.3853 27.2765 32.8626 27.7627C33.2347 27.8692 33.5575 28.0995 33.7758 28.4142C33.9927 28.727 34.0928 29.1039 34.0594 29.4807C34.0572 29.7253 33.9961 29.9659 33.8811 30.183C33.7641 30.404 33.5946 30.5941 33.387 30.7372C33.1794 30.8802 32.9398 30.9722 32.6884 31.005C32.437 31.038 32.1813 31.0109 31.9428 30.9261L31.9246 30.9197L31.9076 30.9109C31.7856 30.8481 31.6559 30.8009 31.5218 30.7701L31.5134 30.7683C30.4741 30.4971 29.4938 30.9464 29.1358 31.4985C28.965 31.7618 28.9438 32.0275 29.086 32.2693C29.2384 32.5281 29.612 32.8187 30.368 33.0257C30.5759 33.0818 30.789 33.1359 31.0052 33.1909C31.603 33.3429 32.2242 33.5009 32.8249 33.7199L32.8272 33.7207C35.5986 34.7567 36.6306 36.9021 36.2773 38.9201C35.9278 40.9157 34.2314 42.7319 31.6803 43.1603C30.752 43.3624 29.7859 43.323 28.8777 43.046C27.9672 42.7682 27.1465 42.2612 26.4972 41.5753L26.4802 41.5574C26.2752 41.2989 26.1374 40.9953 26.0762 40.6732C26.02 40.3825 26.0496 40.082 26.1615 39.8072C26.2726 39.5341 26.4607 39.2977 26.7033 39.1254C26.9597 38.9301 27.2687 38.813 27.5921 38.7885C27.9145 38.7642 28.237 38.8331 28.5201 38.9864C28.8028 39.1206 29.0657 39.2918 29.3018 39.4953L29.3062 39.4991C29.7238 39.8742 30.229 39.972 30.7134 39.8814C31.2049 39.7896 31.6671 39.5039 31.9644 39.1248C32.2597 38.7481 32.3783 38.3006 32.2376 37.8662C32.096 37.4286 31.6703 36.9384 30.7349 36.5285C30.4904 36.4265 30.2369 36.3443 29.9732 36.2642C29.9021 36.2426 29.8298 36.2211 29.7566 36.1993C29.5616 36.1411 29.361 36.0812 29.1642 36.0152C29.0287 35.9699 28.8943 35.9269 28.7612 35.8842C28.3974 35.7678 28.0427 35.6544 27.7013 35.5022C26.9584 35.2537 26.3165 34.7765 25.8712 34.1413C25.4242 33.5035 25.1992 32.7409 25.2298 31.9672C25.2322 30.0818 26.4409 28.7828 27.9732 28.0875Z" fill="#373873"/>
<path d="M47.2958 27.887C47.0003 27.7452 46.6735 27.6779 46.3449 27.6911C46.0163 27.7044 45.6962 27.7978 45.4136 27.963C45.1327 28.1271 44.8976 28.3569 44.7291 28.6319C44.5746 28.8635 44.4676 29.1225 44.4143 29.3944C44.361 29.6662 44.3623 29.9454 44.418 30.2165C44.473 30.565 44.5341 30.9038 44.5943 31.238C44.6941 31.7909 44.7912 32.3315 44.8552 32.8826L44.8576 32.8966C45.0034 33.7609 45.0797 34.635 45.0866 35.511L45.0872 35.5235C45.1371 36.4695 44.809 37.3971 44.1733 38.1095L44.1632 38.1221C43.9564 38.3825 43.6798 38.5813 43.3644 38.6962C43.0491 38.811 42.7076 38.8374 42.3778 38.7724C42.0481 38.7074 41.7433 38.5536 41.4975 38.3281C41.2517 38.1026 41.0744 37.8135 40.9859 37.4949C40.797 36.8232 40.6877 36.1323 40.6599 35.4361L40.9826 30.3892C40.9874 30.3233 40.9928 30.2557 40.9983 30.1874C41.0106 30.0341 41.0232 29.878 41.0284 29.7324C41.036 29.5181 41.0295 29.2978 40.9787 29.0892C40.9267 28.876 40.8278 28.6732 40.6523 28.5005C40.4786 28.3296 40.2441 28.2035 39.949 28.1176C39.4154 27.9659 38.9641 27.9707 38.5881 28.1274C38.2119 28.2842 37.9542 28.5753 37.7718 28.9115C37.5908 29.2449 37.4745 29.6396 37.3866 30.0349C37.3213 30.3282 37.2689 30.6362 37.2191 30.9293C37.2018 31.0304 37.185 31.1295 37.1679 31.2258L37.1675 31.2287C36.9008 32.8362 36.8215 34.4685 36.9309 36.0937C36.9513 36.972 37.1377 37.8389 37.4808 38.6502C37.8679 39.6971 38.5689 40.6041 39.4915 41.2515C40.4159 41.9003 41.5191 42.2578 42.655 42.2766C43.7909 42.2955 44.9058 41.9749 45.8521 41.3573C46.7969 40.7406 47.5291 39.8568 47.9519 38.8227C48.5433 37.5054 48.821 36.0729 48.7637 34.6342C48.7289 33.5838 48.6707 32.5254 48.6129 31.4724C48.5844 30.9558 48.5561 30.4404 48.5307 29.9281C48.5179 29.4144 48.3455 28.9168 48.0365 28.5022C47.8453 28.24 47.5908 28.0286 47.2958 27.887Z" fill="#373873"/>
<path d="M57.756 35.8004C57.726 35.8378 57.6944 35.8766 57.6614 35.9168C57.421 34.5545 57.1982 33.1926 56.9751 31.8286C56.8951 31.3392 56.8147 30.8478 56.7338 30.3578L56.7247 30.3031L56.6951 30.2559C56.6394 30.167 56.6339 30.0798 56.6339 29.8939V29.8724L56.6305 29.8511C56.5702 29.4672 56.3934 29.11 56.1234 28.8261C55.8541 28.543 55.5044 28.346 55.1198 28.2605C54.7357 28.1674 54.3322 28.1879 53.9599 28.3195C53.5886 28.4507 53.2649 28.6866 53.0293 28.9975C52.8335 29.2361 52.6729 29.5007 52.5526 29.7835C52.2795 30.3927 52.0041 31.0034 51.7279 31.6157L51.7231 31.6263C51.0336 33.155 50.3394 34.6939 49.6653 36.245L49.6633 36.25C49.2495 37.2557 48.908 38.3154 48.5676 39.3718C48.4996 39.5827 48.4317 39.7935 48.3631 40.0037C48.2402 40.3371 48.1865 40.6912 48.205 41.0452C48.1826 41.3621 48.2598 41.6782 48.4263 41.9508C48.5961 42.229 48.8505 42.4479 49.1535 42.5767C49.4747 42.715 49.8337 42.7444 50.1739 42.6602C50.5133 42.576 50.8147 42.3836 51.0306 42.1131C51.3064 41.7798 51.5436 41.4163 51.7371 41.0312C52.3081 39.8838 52.8538 38.7224 53.3969 37.566C53.6071 37.1188 53.8114 36.7182 54.0437 36.2819C54.0597 36.3357 54.076 36.3882 54.0928 36.4408C54.3363 37.494 54.7474 38.5029 55.3107 39.4304C55.4174 39.6269 55.5659 39.7986 55.7461 39.9338C55.9285 40.0706 56.139 40.1666 56.363 40.2153C56.587 40.2641 56.8191 40.2643 57.0432 40.216C57.267 40.1678 57.4781 40.0716 57.6607 39.9355L58.0219 39.6699L60.8255 37.3498L60.6597 38.3878C60.4322 39.8146 60.2063 41.2295 59.9664 42.6448C59.8094 43.272 59.8096 43.9272 59.967 44.5543C60.0352 44.9072 60.2089 45.2321 60.466 45.4876C60.7253 45.7451 61.0573 45.9201 61.4191 45.9899C61.7808 46.0596 62.1556 46.021 62.4947 45.8789C62.8289 45.7389 63.1131 45.5048 63.3118 45.2064C63.7741 44.643 64.0618 43.9608 64.1409 43.2412C64.2598 42.2249 64.3943 41.1947 64.5288 40.1649C64.6837 38.9779 64.8386 37.7912 64.9695 36.6273L64.9699 36.6237C65.0958 35.3496 65.1568 34.0703 65.1525 32.7903C65.1801 32.3858 65.0776 31.9828 64.8592 31.6384C64.64 31.2928 64.3153 31.0241 63.9316 30.8704C63.5325 30.6921 63.0858 30.6444 62.657 30.7346C62.2311 30.824 61.8455 31.0446 61.5563 31.3641C61.0392 31.834 60.5541 32.3368 60.1041 32.8692L60.101 32.8728C59.6097 33.4743 59.1218 34.0875 58.637 34.6967C58.3423 35.0671 58.0484 35.4366 57.756 35.8004Z" fill="#373873"/>
</g>
<defs>
<clipPath id="clip0_12_16">
<rect width="76" height="48" fill="white"/>
</clipPath>
</defs>
</svg>
