<svg width="24" height="28" viewBox="0 0 24 28" fill="none" xmlns="http://www.w3.org/2000/svg">
<path d="M0.00082303 7.75134V19.3571C0.00082303 20.0535 0.372468 20.6965 0.975161 21.0443L11.0261 26.8468C11.6288 27.1946 12.3712 27.1946 12.9748 26.8468L23.0257 21.0443C23.6284 20.6965 24 20.0527 24 19.3571V7.75134C24 7.05492 23.6284 6.41194 23.0257 6.06413L12.9739 0.260852C12.3712 -0.0869505 11.6288 -0.0869505 11.0253 0.260852L0.974338 6.06331C0.371645 6.41111 0 7.05492 0 7.75052L0.00082303 7.75134Z" fill="#373873"/>
<g clip-path="url(#clip0_12_54)">
<path d="M17.8947 16.2179C17.0311 16.2179 16.1853 16.0831 15.3829 15.8178C14.9916 15.683 14.548 15.7868 14.2901 16.0492L12.7008 17.2495C10.8778 16.2769 9.71064 15.1104 8.74982 13.2993L9.9177 11.7475C10.2117 11.4528 10.3171 11.0232 10.1911 10.6201C9.92506 9.814 9.78949 8.96737 9.78949 8.10526C9.78949 7.49588 9.29361 7 8.68423 7H6.10526C5.49588 7 5 7.49588 5 8.10526C5 15.215 10.785 21 17.8947 21C18.5041 21 19 20.5041 19 19.8947V17.3232C19 16.7138 18.5041 16.2179 17.8947 16.2179ZM18.2632 19.8947C18.2632 20.0981 18.0974 20.2632 17.8947 20.2632C11.1909 20.2632 5.73683 14.8091 5.73683 8.10526C5.73683 7.9019 5.90262 7.73683 6.10526 7.73683H8.68423C8.88687 7.73683 9.05266 7.9019 9.05266 8.10526C9.05266 9.04622 9.20004 9.97022 9.48886 10.8463C9.53158 10.9841 9.49697 11.1263 9.36213 11.2663L8.02107 13.0421C7.93634 13.1548 7.92308 13.3059 7.98718 13.4312C9.07991 15.5776 10.407 16.9054 12.5689 18.0129C12.6934 18.0777 12.8459 18.0644 12.9587 17.979L14.7728 16.604C14.8715 16.5068 15.0167 16.4729 15.1478 16.5163C16.0291 16.8074 16.9531 16.9547 17.8948 16.9547C18.0974 16.9547 18.2632 17.1198 18.2632 17.3232V19.8947H18.2632Z" fill="white"/>
</g>
<defs>
<clipPath id="clip0_12_54">
<rect width="14" height="14" fill="white" transform="translate(5 7)"/>
</clipPath>
</defs>
</svg>
