<svg width="13" height="13" viewBox="0 0 13 13" fill="none" xmlns="http://www.w3.org/2000/svg">
<path d="M5.58334 0.25C8.25274 0.25 10.4167 2.41396 10.4167 5.08334C10.4167 6.23794 10.0118 7.29794 9.33634 8.12921L12.6035 11.3965C12.7988 11.5917 12.7988 11.9083 12.6035 12.1035C12.4261 12.2811 12.1483 12.2972 11.9525 12.1519L11.8965 12.1035L8.62921 8.83634C7.79794 9.51181 6.73794 9.91667 5.58334 9.91667C2.91396 9.91667 0.75 7.75274 0.75 5.08334C0.75 2.41396 2.91396 0.25 5.58334 0.25ZM5.58334 1.25C3.46624 1.25 1.75 2.96624 1.75 5.08334C1.75 7.2004 3.46624 8.91667 5.58334 8.91667C7.7004 8.91667 9.41667 7.2004 9.41667 5.08334C9.41667 2.96624 7.7004 1.25 5.58334 1.25Z" fill="#373873"/>
</svg>
