<svg width="24" height="28" viewBox="0 0 24 28" fill="none" xmlns="http://www.w3.org/2000/svg">
<path d="M0 7.75079V19.3569C0 20.0534 0.37166 20.6964 0.974373 21.0442L11.0256 26.8469C11.6283 27.1947 12.3708 27.1947 12.9744 26.8469L23.0256 21.0442C23.6283 20.6964 24 20.0526 24 19.3569V7.75079C24 7.05434 23.6283 6.41133 23.0256 6.06352L12.9744 0.260861C12.3717 -0.0869535 11.6292 -0.0869535 11.0256 0.260861L0.974373 6.06352C0.37166 6.41133 0 7.05516 0 7.75079Z" fill="#FFF800"/>
<path d="M15.6552 11.4142C15.6535 11.5713 15.6371 11.7267 15.6223 11.8829C15.6174 11.9347 15.6157 11.9865 15.6149 12.0383C15.6132 12.1279 15.6848 12.2085 15.7744 12.2028C15.8172 12.2003 15.8607 12.1888 15.901 12.1748C16.0375 12.1271 16.1732 12.0753 16.308 12.0235C16.4314 11.9766 16.5564 11.9331 16.6838 11.8985C16.822 11.8607 16.9609 11.8328 17.1015 11.8558C17.3885 11.9026 17.5743 12.211 17.4699 12.4823C17.4403 12.5588 17.3951 12.6238 17.3416 12.6838C17.2676 12.7668 17.1821 12.8367 17.0908 12.8992C16.9831 12.9724 16.8738 13.0431 16.7644 13.1155C16.5827 13.2347 16.401 13.3539 16.2201 13.4748C16.1452 13.525 16.0721 13.5784 16.0005 13.6335C15.9611 13.6639 15.9241 13.6993 15.8912 13.7363C15.827 13.807 15.7925 13.8983 15.7974 13.9936C15.8032 14.094 15.8205 14.1926 15.8484 14.2897C15.9347 14.5906 16.0655 14.871 16.2258 15.139C16.6542 15.8536 17.2602 16.4119 17.9822 16.8682C18.1803 16.9932 18.3925 17.0944 18.6013 17.2021C18.6309 17.2169 18.6597 17.2333 18.6885 17.2506C18.7173 17.2679 18.7419 17.2909 18.7617 17.318C18.7913 17.36 18.7954 17.4035 18.7699 17.4504C18.7485 17.4899 18.7181 17.5195 18.6844 17.5474C18.6465 17.5787 18.6054 17.6042 18.5635 17.628C18.3201 17.7662 18.0578 17.8698 17.7865 17.9413C17.6549 17.9758 17.525 18.0136 17.3942 18.0523C17.3137 18.0761 17.2388 18.1115 17.164 18.1501C17.039 18.2151 16.9675 18.3187 16.9412 18.4544C16.9264 18.53 16.9173 18.6065 16.9042 18.6821C16.8696 18.8729 16.8014 18.9428 16.6139 18.9749C16.5481 18.9864 16.4815 18.993 16.4149 18.9971C16.248 19.0061 16.0803 19.011 15.9134 19.0201C15.9084 19.0201 15.9035 19.0201 15.8994 19.0209C15.2325 19.0604 14.5862 19.2742 14.0148 19.6195C13.9844 19.6376 13.9539 19.6565 13.9235 19.6746C13.6916 19.8144 13.4565 19.9476 13.2032 20.0463C12.9212 20.1556 12.6293 20.2214 12.3275 20.2485C12.0734 20.2716 11.8194 20.2683 11.5661 20.2395C11.187 20.1967 10.8277 20.0866 10.4881 19.9122C10.3303 19.8317 10.1781 19.7412 10.0268 19.6483C10.0186 19.6434 10.0104 19.6384 10.0022 19.6327C9.4011 19.2668 8.71781 19.0448 8.01396 19.016C8.00902 19.016 8.00409 19.016 7.99916 19.016C7.85197 19.0102 7.70479 19.0045 7.55761 18.9954C7.47127 18.9905 7.38575 18.979 7.30106 18.956C7.19417 18.9264 7.11605 18.8326 7.0955 18.7233C7.08399 18.6641 7.07494 18.604 7.06425 18.544C7.06178 18.5308 7.06178 18.5177 7.05932 18.5045C7.03465 18.3294 6.94831 18.2011 6.78304 18.1263C6.6819 18.0811 6.57912 18.0433 6.47223 18.0137C6.28886 17.9627 6.10386 17.9174 5.92378 17.8533C5.76591 17.7966 5.61379 17.73 5.46661 17.6494C5.42303 17.6255 5.38027 17.5992 5.33834 17.5705C5.3112 17.5515 5.28489 17.5302 5.26187 17.5063C5.18786 17.4298 5.19526 17.3287 5.27913 17.2629C5.32765 17.2243 5.38356 17.1996 5.43865 17.1725C5.821 16.985 6.18362 16.7655 6.52074 16.5056C7.02972 16.1134 7.4614 15.6497 7.78784 15.0897C7.9046 14.8899 7.99998 14.6778 8.07974 14.4599C8.13236 14.316 8.17512 14.1713 8.18499 14.0208C8.19239 13.9098 8.15539 13.7988 8.07892 13.7182C8.02465 13.6606 7.96051 13.6129 7.89555 13.5669C7.79935 13.4978 7.7015 13.4304 7.60283 13.3654C7.39151 13.2265 7.17937 13.09 6.96805 12.951C6.87513 12.8902 6.78633 12.8252 6.70657 12.7487C6.64819 12.6937 6.59557 12.6328 6.55445 12.5637C6.46729 12.4182 6.46072 12.2677 6.52567 12.114C6.56432 12.0227 6.63586 11.9446 6.7263 11.9026C6.8554 11.8434 6.9886 11.836 7.12428 11.8591C7.26982 11.8829 7.4096 11.9281 7.54856 11.9783C7.68999 12.0293 7.82977 12.0844 7.97038 12.1378C8.03616 12.1625 8.10194 12.1871 8.17183 12.1978C8.18828 12.2003 8.20472 12.2052 8.22117 12.2044C8.30175 12.2019 8.36917 12.1756 8.36835 12.0671C8.36835 12.0145 8.36671 11.9619 8.36424 11.9084C8.3519 11.6469 8.33628 11.3846 8.33053 11.1231C8.31573 10.4991 8.31819 9.8725 8.481 9.2665C8.58049 8.89484 8.75399 8.55113 8.98669 8.24525C9.47099 7.60882 10.1091 7.2051 10.8729 6.99049C11.2906 6.87291 11.7166 6.83344 12.1491 6.84742C12.5577 6.85975 12.9648 6.92882 13.3504 7.06367C13.8092 7.22401 14.2261 7.45671 14.5797 7.78644C14.9826 8.16138 15.2926 8.59964 15.4611 9.13C15.5368 9.3701 15.5853 9.61513 15.6149 9.86427C15.6766 10.379 15.6593 10.897 15.6544 11.4142H15.6552Z" fill="white"/>
<path d="M11.9901 20.6037C11.8355 20.6037 11.6809 20.5946 11.5263 20.5774C11.1119 20.5305 10.7098 20.4088 10.3308 20.2147C10.1622 20.1284 9.99857 20.0314 9.84728 19.9385L9.82261 19.9237C9.25608 19.5783 8.62458 19.3826 7.99803 19.3563H7.98323C7.85331 19.3505 7.69708 19.3448 7.53592 19.3349C7.41505 19.3275 7.30815 19.3111 7.20948 19.2839C6.9809 19.2215 6.80411 19.0258 6.75806 18.7865C6.74902 18.7413 6.74162 18.696 6.73422 18.6508L6.726 18.6007C6.72353 18.5858 6.72189 18.5702 6.72024 18.5538C6.70955 18.4781 6.68817 18.4576 6.64213 18.4362C6.55826 18.3984 6.47028 18.3663 6.38065 18.3416C6.33789 18.3301 6.29514 18.3178 6.25238 18.3071C6.10848 18.2685 5.95883 18.2282 5.80918 18.1747C5.6324 18.1114 5.46219 18.0358 5.30349 17.9494C5.25169 17.9206 5.19907 17.8886 5.14644 17.8532C5.09793 17.8203 5.05353 17.7833 5.0157 17.7439C4.9121 17.6361 4.86112 17.4997 4.87017 17.3582C4.88003 17.2168 4.9491 17.0877 5.06586 16.9948C5.13822 16.9381 5.20976 16.9027 5.26814 16.8747L5.28787 16.8649C5.662 16.6815 6.00652 16.4694 6.3124 16.2334C6.81644 15.8453 7.20208 15.4144 7.49316 14.9161C7.59265 14.7451 7.6831 14.551 7.75957 14.3414C7.81302 14.1958 7.83851 14.0922 7.84509 13.9968C7.84591 13.9796 7.84098 13.9615 7.83111 13.9516C7.79822 13.9163 7.74888 13.8809 7.6979 13.8439C7.5943 13.7699 7.50221 13.7066 7.41587 13.6499C7.28677 13.5643 7.15686 13.4805 7.02694 13.3958L6.78273 13.2363C6.65775 13.1549 6.5599 13.0784 6.47274 12.9962C6.38558 12.9131 6.31651 12.8292 6.26224 12.738C6.11999 12.5003 6.10273 12.2389 6.21209 11.9798C6.28445 11.8088 6.42012 11.6666 6.58457 11.5917C6.76382 11.5087 6.96527 11.4857 7.18153 11.521C7.36324 11.5515 7.52852 11.6057 7.66583 11.6559C7.76039 11.6904 7.85413 11.7258 7.94787 11.762C7.97089 11.771 7.99392 11.7792 8.01694 11.7883L8.01365 11.7233C8.00378 11.5301 7.99391 11.3294 7.98898 11.1305C7.97418 10.5031 7.97418 9.83623 8.15179 9.1776C8.26197 8.76812 8.45191 8.38495 8.71586 8.03796C9.22648 7.36617 9.9221 6.90324 10.7814 6.66068C11.2089 6.54063 11.6604 6.48965 12.1611 6.50445C12.6199 6.51842 13.059 6.59818 13.4652 6.73961C13.9923 6.9238 14.4462 7.19185 14.8145 7.53473C15.2939 7.98122 15.6121 8.46882 15.7889 9.02549C15.867 9.27134 15.9213 9.53199 15.9566 9.82307C16.0126 10.295 16.0068 10.7654 16.0002 11.2209L15.9978 11.4174C15.9961 11.5432 15.9862 11.6657 15.9756 11.7842C16.0471 11.7578 16.1178 11.7307 16.186 11.7044C16.3341 11.6477 16.4673 11.6033 16.5939 11.5687C16.755 11.5251 16.9475 11.4848 17.1563 11.5186C17.3981 11.558 17.6077 11.7044 17.7327 11.9206C17.8544 12.1328 17.8758 12.3819 17.7903 12.6048C17.7483 12.7133 17.6858 12.8136 17.597 12.9123C17.5091 13.011 17.4063 13.0989 17.2829 13.1828C17.1982 13.2404 17.1136 13.2963 17.028 13.3522L16.774 13.5191C16.6523 13.5989 16.5314 13.6786 16.4105 13.7592C16.3456 13.8028 16.2781 13.8513 16.2099 13.9039C16.1885 13.9204 16.1671 13.9409 16.1458 13.9648C16.1408 13.9705 16.1392 13.9738 16.1392 13.9746C16.1433 14.047 16.1556 14.1194 16.177 14.195C16.2494 14.4483 16.3612 14.699 16.5191 14.9622C16.8932 15.5863 17.4318 16.115 18.1652 16.5779C18.3075 16.6675 18.4604 16.7456 18.6216 16.827C18.6676 16.8501 18.7128 16.8739 18.7589 16.8969C18.7942 16.915 18.828 16.9339 18.8617 16.9537C18.9332 16.9956 18.9932 17.0515 19.0417 17.1198C19.1453 17.2686 19.1569 17.452 19.0713 17.6098C19.0204 17.7052 18.9505 17.7685 18.9028 17.808C18.8411 17.859 18.7794 17.896 18.7326 17.9231C18.4719 18.0711 18.1833 18.1879 17.8741 18.2701C17.7582 18.3005 17.6373 18.3351 17.4918 18.3778C17.4334 18.3951 17.3734 18.4247 17.3216 18.451C17.3002 18.4625 17.2862 18.4716 17.2772 18.5168C17.2698 18.5538 17.2648 18.5908 17.2591 18.6278C17.2533 18.6648 17.2476 18.7026 17.241 18.7396C17.1818 19.071 17.0009 19.2519 16.672 19.3086C16.5972 19.3218 16.5166 19.33 16.4335 19.3349C16.3505 19.3399 16.2675 19.3431 16.1852 19.3464C16.1014 19.3497 16.0167 19.353 15.9328 19.358H15.9237C15.3268 19.3933 14.7298 19.5841 14.1913 19.9089L14.1 19.964C13.8665 20.1054 13.6116 20.2509 13.3262 20.3619C13.0228 20.4795 12.6972 20.5552 12.3576 20.5856C12.2359 20.5963 12.1134 20.602 11.9909 20.602L11.9901 20.6037ZM7.42574 18.6344C7.47014 18.6442 7.51947 18.65 7.57621 18.6533C7.73079 18.6623 7.88209 18.6681 8.01036 18.673H8.02598C8.76848 18.7043 9.51262 18.9345 10.1778 19.3399L10.2041 19.3563C10.3645 19.4542 10.501 19.5347 10.6416 19.6063C10.9466 19.7625 11.2698 19.8603 11.602 19.8982C11.8338 19.9245 12.0665 19.9269 12.2943 19.9064C12.5739 19.8809 12.8304 19.8217 13.0771 19.7263C13.3131 19.6342 13.5376 19.506 13.7448 19.381L13.836 19.3259C14.4684 18.9444 15.1747 18.7199 15.8777 18.6788H15.8917C15.9805 18.673 16.0676 18.6689 16.1556 18.6656C16.2354 18.6623 16.3151 18.659 16.3949 18.6549C16.4525 18.6516 16.5059 18.6459 16.5552 18.6377C16.5585 18.6377 16.561 18.6368 16.5643 18.636C16.5651 18.6319 16.5659 18.627 16.5668 18.6212C16.5725 18.59 16.5766 18.5595 16.5816 18.5283C16.589 18.4814 16.5955 18.4354 16.6046 18.3885C16.6523 18.1451 16.7912 17.9576 17.0058 17.8466C17.0815 17.8072 17.1826 17.7587 17.2961 17.725C17.4474 17.6797 17.5748 17.6444 17.6974 17.6115C17.8931 17.5597 18.0781 17.4914 18.2491 17.4076C18.1003 17.3311 17.9473 17.2513 17.7993 17.1576C16.9729 16.6363 16.362 16.0336 15.932 15.3149C15.7429 14.9992 15.608 14.6949 15.5192 14.3841C15.4838 14.2608 15.4625 14.1358 15.4559 14.0133C15.446 13.8283 15.5102 13.649 15.6368 13.5084C15.6853 13.4542 15.7379 13.4056 15.7914 13.3637C15.8719 13.302 15.9517 13.2437 16.0298 13.1919C16.1523 13.1105 16.2749 13.029 16.3982 12.9485L16.6514 12.7815C16.7337 12.7273 16.8167 12.673 16.8981 12.6179C16.9746 12.5661 17.0354 12.5143 17.0864 12.4576C17.1185 12.4214 17.139 12.391 17.1506 12.3614C17.1662 12.3203 17.1506 12.2824 17.139 12.2627C17.1185 12.2265 17.0831 12.201 17.0461 12.1945C16.9664 12.1813 16.8677 12.2035 16.7731 12.2298C16.6687 12.2586 16.5569 12.2956 16.4303 12.3441C16.2979 12.3951 16.1564 12.4485 16.0142 12.4987C15.9369 12.5258 15.8654 12.5415 15.7955 12.5456C15.6614 12.553 15.5282 12.5044 15.4296 12.4099C15.3276 12.312 15.2709 12.1747 15.2733 12.0325C15.2742 11.984 15.2758 11.9198 15.2824 11.8524L15.2881 11.7874C15.3005 11.6567 15.312 11.5325 15.3136 11.4117L15.3161 11.2127C15.3219 10.7596 15.3276 10.332 15.2766 9.9053C15.247 9.6578 15.201 9.43826 15.136 9.23351C14.9962 8.79196 14.7381 8.40057 14.3475 8.03713C14.0441 7.7551 13.6815 7.54213 13.2383 7.38755C12.8978 7.26832 12.5287 7.20172 12.1389 7.19021C11.7089 7.17623 11.3249 7.21981 10.9655 7.32095C10.242 7.52486 9.68365 7.8957 9.25854 8.45402C9.04805 8.73029 8.89757 9.03453 8.81042 9.35767C8.65748 9.92832 8.65748 10.5401 8.67145 11.1173C8.67557 11.3072 8.68543 11.5029 8.6953 11.6921L8.70517 11.8952C8.70763 11.9527 8.70928 12.0103 8.7101 12.0678C8.71174 12.3474 8.51934 12.5406 8.23072 12.5488C8.17974 12.5488 8.1411 12.5423 8.11972 12.5382C8.01283 12.5217 7.92156 12.4872 7.8492 12.46C7.79986 12.4411 7.75053 12.423 7.70201 12.4041C7.61239 12.3696 7.52194 12.3351 7.43149 12.3022C7.32295 12.2627 7.19468 12.2199 7.06806 12.1994C6.96116 12.1821 6.90278 12.201 6.86825 12.2167C6.86002 12.2208 6.84687 12.2323 6.84029 12.2504C6.81316 12.3145 6.8222 12.349 6.84687 12.391C6.86907 12.428 6.89949 12.465 6.94143 12.5044C6.99734 12.5579 7.06559 12.6097 7.15521 12.6681L7.3986 12.8268C7.52934 12.9123 7.66008 12.997 7.79082 13.0825C7.88456 13.1442 7.98405 13.2124 8.09423 13.2913C8.1707 13.3456 8.2521 13.4056 8.32775 13.4862C8.46836 13.6351 8.54071 13.839 8.52674 14.047C8.51276 14.2542 8.45273 14.4417 8.40093 14.5806C8.31048 14.829 8.20359 15.0592 8.08272 15.2648C7.75135 15.8329 7.29582 16.3427 6.72846 16.7794C6.42752 17.0112 6.0945 17.2217 5.73682 17.4076C5.83303 17.4544 5.93334 17.4964 6.03777 17.5342C6.16193 17.5786 6.29185 17.6131 6.42916 17.6501C6.47356 17.6625 6.51797 17.674 6.56237 17.6863C6.68571 17.7208 6.80658 17.7644 6.92169 17.8162C7.18975 17.9371 7.35338 18.1591 7.39614 18.4584C7.39778 18.4691 7.3986 18.479 7.39942 18.4896V18.488L7.40765 18.5415C7.41258 18.5735 7.41834 18.6048 7.42409 18.6368L7.42574 18.6344Z" fill="#1D1D1B"/>
</svg>
