<svg width="24" height="28" viewBox="0 0 24 28" fill="none" xmlns="http://www.w3.org/2000/svg">
<path d="M0.00082303 7.75134V19.3571C0.00082303 20.0535 0.372468 20.6965 0.975161 21.0443L11.0261 26.8468C11.6288 27.1946 12.3712 27.1946 12.9747 26.8468L23.0257 21.0443C23.6284 20.6965 24 20.0527 24 19.3571V7.75134C24 7.05492 23.6284 6.41194 23.0257 6.06413L12.9739 0.260852C12.3712 -0.0869505 11.6288 -0.0869505 11.0252 0.260852L0.974338 6.06331C0.371645 6.41111 0 7.05492 0 7.75052L0.00082303 7.75134Z" fill="black"/>
<path d="M17.6114 11.2788V13.3681C17.2455 13.3327 16.7719 13.2497 16.2465 13.0573C15.5607 12.8057 15.051 12.4628 14.7163 12.1964V16.4194L14.7081 16.4062C14.7138 16.4901 14.7163 16.5748 14.7163 16.6611C14.7163 18.7586 13.0102 20.4655 10.9119 20.4655C8.81355 20.4655 7.10742 18.7586 7.10742 16.6611C7.10742 14.5636 8.81355 12.8558 10.9119 12.8558C11.1166 12.8558 11.3189 12.8723 11.5154 12.9035V14.9624C11.3263 14.895 11.1232 14.858 10.9119 14.858C9.91862 14.858 9.10954 15.6662 9.10954 16.6603C9.10954 17.6543 9.91862 18.4626 10.9119 18.4626C11.9051 18.4626 12.7142 17.6535 12.7142 16.6603C12.7142 16.6233 12.7134 16.5855 12.7109 16.5485V8.3418H14.7994C14.8068 8.51858 14.8142 8.69618 14.8216 8.87378C14.8355 9.22158 14.9597 9.55623 15.1751 9.83003C15.4292 10.1515 15.8025 10.5256 16.3287 10.8241C16.8204 11.1028 17.2833 11.2229 17.6106 11.2788H17.6114Z" fill="#FF004F"/>
<path d="M16.8926 9.58153V11.6708C16.5267 11.6355 16.0531 11.5524 15.5277 11.36C14.842 11.1084 14.3322 10.7655 13.9976 10.4991V14.7221L13.9893 14.7089C13.9951 14.7928 13.9976 14.8775 13.9976 14.9638C13.9976 17.0613 12.2914 18.7683 10.1931 18.7683C8.09479 18.7683 6.38867 17.0613 6.38867 14.9638C6.38867 12.8663 8.09479 11.1586 10.1931 11.1586C10.3979 11.1586 10.6001 11.175 10.7966 11.2062V13.2651C10.6075 13.1977 10.4044 13.1607 10.1931 13.1607C9.19986 13.1607 8.39079 13.9689 8.39079 14.963C8.39079 15.9571 9.19986 16.7653 10.1931 16.7653C11.1864 16.7653 11.9954 15.9563 11.9954 14.963C11.9954 14.926 11.9954 14.8882 11.9921 14.8512V6.64453H14.0806C14.088 6.82131 14.0954 6.99891 14.1028 7.17651C14.1168 7.52431 14.2409 7.85896 14.4564 8.13276C14.7104 8.45425 15.0837 8.82837 15.61 9.12684C16.1016 9.40557 16.5646 9.52562 16.8918 9.58153H16.8926Z" fill="#00F7EF"/>
<path d="M17.3497 10.4936V12.5829C16.9838 12.5476 16.5102 12.4645 15.9848 12.2721C15.299 12.0205 14.7892 11.6776 14.4546 11.4112V15.6342L14.4464 15.621C14.4521 15.7049 14.4546 15.7896 14.4546 15.8759C14.4546 17.9734 12.7485 19.6804 10.6501 19.6804C8.55182 19.6804 6.8457 17.9734 6.8457 15.8759C6.8457 13.7784 8.55182 12.0707 10.6501 12.0707C10.8549 12.0707 11.0572 12.0871 11.2537 12.1184V14.1772C11.0646 14.1098 10.8615 14.0728 10.6501 14.0728C9.6569 14.0728 8.84783 14.881 8.84783 15.8751C8.84783 16.8692 9.6569 17.6774 10.6501 17.6774C11.6434 17.6774 12.4525 16.8684 12.4525 15.8751C12.4525 15.8381 12.4516 15.8003 12.4492 15.7633V7.55664H14.5376C14.545 7.73342 14.5524 7.91102 14.5598 8.08862C14.5738 8.43642 14.698 8.77107 14.9134 9.04487C15.1675 9.36636 15.5408 9.74048 16.067 10.0389C16.5587 10.3177 17.0216 10.4377 17.3488 10.4936H17.3497Z" fill="white"/>
</svg>
