<svg width="24" height="28" viewBox="0 0 24 28" fill="none" xmlns="http://www.w3.org/2000/svg">
<path d="M0.00082303 7.75134V19.3571C0.00082303 20.0535 0.372468 20.6965 0.975161 21.0443L11.0261 26.8468C11.6288 27.1946 12.3712 27.1946 12.9748 26.8468L23.0257 21.0443C23.6284 20.6965 24 20.0527 24 19.3571V7.75134C24 7.05492 23.6284 6.41194 23.0257 6.06413L12.9739 0.260852C12.3712 -0.0869505 11.6288 -0.0869505 11.0253 0.260852L0.974338 6.06331C0.371645 6.41111 0 7.05492 0 7.75052L0.00082303 7.75134Z" fill="#2188F7"/>
<path d="M19.5059 8.90157C19.1539 9.2576 18.6655 9.47795 18.1245 9.47795C18.0554 9.47795 17.9872 9.47384 17.9206 9.46727C18.4847 9.12851 18.9204 8.59817 19.1375 7.96588C19.1375 7.96588 19.1383 7.96588 19.1383 7.96506C19.1687 7.88037 19.1934 7.79486 19.214 7.70605C18.7675 8.18377 18.1566 8.5069 17.4717 8.58337C17.3664 8.5957 17.2595 8.60146 17.1518 8.60146C17.1181 8.60146 17.0844 8.60064 17.0515 8.59817C16.8196 8.35479 16.5434 8.15335 16.2375 8.00535C15.8963 7.83926 15.5148 7.74059 15.1119 7.72825C15.079 7.72661 15.0461 7.72497 15.0116 7.72497C14.6703 7.72497 14.3423 7.78499 14.0397 7.89681C13.9616 7.92477 13.8867 7.95601 13.8127 7.99219C12.8532 8.44195 12.1897 9.41629 12.1897 10.546C12.1897 10.7779 12.2176 11.0032 12.2702 11.2186C11.9767 11.2071 11.6856 11.1783 11.4003 11.1356C11.3091 11.1208 11.2178 11.1051 11.1265 11.0879C10.3989 10.953 9.70491 10.7203 9.06028 10.4038C8.48308 10.1218 7.94534 9.77313 7.45611 9.3686C7.04418 9.02902 6.66759 8.65079 6.3313 8.23721C6.3165 8.21995 6.3017 8.20104 6.28854 8.18377C6.26881 8.21419 6.25073 8.24379 6.23428 8.27504C5.99913 8.68697 5.86593 9.16222 5.86593 9.67036C5.86593 9.68598 5.86592 9.70242 5.86674 9.71805C5.8725 10.0987 5.95308 10.4605 6.09697 10.7894C6.15864 10.9358 6.23345 11.0739 6.31897 11.2046C6.57139 11.5927 6.91509 11.9159 7.32209 12.1395C7.34018 12.151 7.35908 12.1609 7.37882 12.1699C7.34922 12.1757 7.31962 12.1806 7.2892 12.1839C7.20533 12.1946 7.11982 12.2004 7.03349 12.2004C6.60017 12.2004 6.19728 12.0655 5.86756 11.8345C5.86592 11.8591 5.86593 11.883 5.86593 11.9085C5.86593 12.7142 6.20386 13.4411 6.74488 13.9533C7.16586 14.3554 7.711 14.6259 8.31616 14.7049C8.09827 14.7846 7.86311 14.8274 7.61727 14.8274C7.35169 14.8274 7.09762 14.7764 6.86493 14.6843C7.21108 15.8108 8.24462 16.6371 9.47632 16.6741C8.72398 17.4552 7.66742 17.9411 6.49822 17.9411C5.77137 17.9411 5.0881 17.7537 4.49609 17.4248C5.91937 18.6565 7.77596 19.4006 9.80686 19.4006C14.2946 19.4006 17.9313 15.7639 17.9313 11.2762C17.9313 11.0287 17.9206 10.7845 17.8984 10.5436C18.6409 10.2508 19.2296 9.65144 19.5075 8.89993L19.5059 8.90157Z" fill="white"/>
</svg>
